<svg width="65" height="40" viewBox="0 0 65 40" fill="none" xmlns="http://www.w3.org/2000/svg">
<path d="M4.06464 11.7424C3.96085 11.3638 3.88127 11.0048 3.82835 10.6702C7.46461 15.9099 12.0478 19.1525 14.0678 20.1936C14.2368 20.2927 14.4986 20.5188 14.8078 20.8741C15.1145 21.2266 15.4438 21.6784 15.746 22.1913C16.355 23.2245 16.8217 24.4499 16.8241 25.5714C16.7626 27.2745 15.9426 28.731 15.1045 29.8056C14.72 30.2988 14.3381 30.7032 14.0362 31.0066C13.6083 29.9081 12.8293 29.13 12.0501 28.5867C11.1826 27.9818 10.2799 27.6449 9.81472 27.4712C9.76881 27.4541 9.72717 27.4385 9.69024 27.4245C7.69632 26.4774 6.58695 25.5224 6.00098 24.7485C5.85825 24.5599 5.74793 24.3844 5.66334 24.2237C6.1751 24.4844 6.72166 24.6445 7.23749 24.7387C8.15226 24.9058 9.02655 24.8763 9.56859 24.794L11.1897 24.548L9.70714 23.8476C6.3453 22.2594 4.70945 20.6496 3.99319 19.3444C3.59463 18.6181 3.47775 17.9842 3.50338 17.4809C3.96206 18.0666 4.50629 18.5616 5.04098 18.9637C5.79225 19.5286 6.54958 19.9287 7.08305 20.1509C7.09084 20.1583 7.09946 20.1662 7.10882 20.1742C7.12414 20.1873 7.17521 20.2307 7.25121 20.2624C7.27824 20.2737 7.36013 20.3028 7.46289 20.3014L8.90707 20.8687L7.91935 19.6108C7.91377 19.5941 7.90889 19.5817 7.90624 19.5749L7.90546 19.5729L7.82448 19.3653L7.69315 19.3158C7.32211 18.7881 6.25482 17.0401 5.31748 15.0263C4.81216 13.9406 4.35355 12.7963 4.06464 11.7424ZM7.56071 19.2654C7.56013 19.2652 7.55956 19.265 7.55899 19.2648C7.36547 19.1887 7.12186 19.0776 6.84961 18.9328L7.56071 19.2654Z" stroke="#00FFFF"/>
<path d="M35.9416 11.7437C36.0425 11.3718 36.1202 11.0188 36.1726 10.689C32.5787 15.9163 28.0551 19.1521 26.0588 20.1925C25.8924 20.2911 25.6339 20.5168 25.3282 20.872C25.0249 21.2244 24.6992 21.6762 24.4002 22.1892C23.798 23.2224 23.3359 24.4486 23.3335 25.5715C23.3944 27.2763 24.2061 28.7334 25.0347 29.8077C25.4114 30.2962 25.7856 30.6977 26.0827 31C26.5064 29.9066 27.2747 29.1308 28.0443 28.5882C28.9031 27.9828 29.7967 27.6455 30.2568 27.4718C30.302 27.4548 30.3431 27.4393 30.3795 27.4252C32.3504 26.4787 33.4469 25.5242 34.0263 24.7506C34.1665 24.5633 34.2751 24.3888 34.3586 24.2289C33.8552 24.4863 33.3183 24.6449 32.8113 24.7386C31.9053 24.9059 31.0394 24.8763 30.5022 24.7939L28.8986 24.5478L30.3625 23.8485C33.6862 22.2609 35.3036 20.6518 36.012 19.3465C36.4033 18.6255 36.5204 17.995 36.4975 17.4928C36.0461 18.0724 35.5121 18.563 34.9871 18.9621C34.2443 19.5269 33.4954 19.9271 32.9672 20.1496C32.9596 20.1569 32.9513 20.1646 32.9422 20.1724C32.9271 20.1855 32.876 20.2295 32.7997 20.2617C32.7724 20.2732 32.6908 20.3023 32.5884 20.3014L31.1509 20.8724L32.1291 19.6128C32.1346 19.596 32.1395 19.5834 32.1421 19.5766L32.1429 19.5746L32.2231 19.3667L32.3532 19.3171C32.7207 18.7885 33.7757 17.0412 34.7024 15.0282C35.2022 13.9425 35.6558 12.7979 35.9416 11.7437ZM32.4859 19.2661C32.4863 19.266 32.4867 19.2658 32.487 19.2657C32.6796 19.1891 32.9226 19.077 33.1942 18.9307L32.4859 19.2661Z" stroke="#00FFFF"/>
<circle cx="19.9699" cy="21.0471" r="8.40177" fill="#00FFFF"/>
<path d="M20.2734 25.3315C20.1032 25.3315 19.9314 25.3315 19.7613 25.3315C19.6605 25.3183 19.5598 25.3084 19.459 25.2935C18.937 25.2192 18.4431 25.059 17.9806 24.8046C17.9459 24.7848 17.8914 24.7815 17.8518 24.793C17.6486 24.8525 17.4487 24.9202 17.2472 24.9846C16.897 25.1019 16.5452 25.2159 16.1933 25.3315C16.1487 25.3315 16.1058 25.3315 16.0612 25.3315C15.929 25.2869 15.8415 25.1994 15.7969 25.0672C15.7969 25.0226 15.7969 24.9797 15.7969 24.9351C15.8002 24.9318 15.8068 24.9285 15.8084 24.9235C15.9819 24.3801 16.1553 23.835 16.3321 23.2915C16.3519 23.232 16.3486 23.1858 16.3189 23.1296C16.0876 22.7117 15.9323 22.269 15.858 21.7966C15.8349 21.6545 15.8167 21.5108 15.7969 21.3671C15.7969 21.197 15.7969 21.0252 15.7969 20.855C15.8018 20.8319 15.8084 20.8071 15.8101 20.784C15.8514 20.1943 16.0083 19.6343 16.2924 19.1173C16.9499 17.9263 17.9492 17.1979 19.2889 16.9402C19.4507 16.9088 19.6143 16.8956 19.7778 16.8741C19.943 16.8741 20.1082 16.8741 20.2734 16.8741C20.2948 16.8791 20.3163 16.8857 20.3378 16.8873C20.9308 16.927 21.4924 17.0839 22.0111 17.3697C23.2021 18.0287 23.9322 19.0281 24.1882 20.3661C24.2196 20.528 24.2328 20.6915 24.2543 20.855C24.2543 21.0202 24.2543 21.1854 24.2543 21.3506C24.2493 21.3737 24.2427 21.3985 24.2411 21.4216C24.1998 22.0113 24.0445 22.5713 23.7587 23.0883C23.1013 24.2793 22.1019 25.0078 20.7623 25.2655C20.6004 25.2952 20.4369 25.3101 20.2734 25.3315ZM16.641 24.4891C16.9994 24.3735 17.343 24.2777 17.6767 24.1521C17.9046 24.0662 18.0863 24.0993 18.2978 24.2182C19.0659 24.651 19.8901 24.7749 20.754 24.5965C21.651 24.4098 22.3728 23.9357 22.9097 23.1957C23.5275 22.3467 23.7257 21.3968 23.5143 20.3711C23.3326 19.4857 22.8618 18.7754 22.1366 18.2369C21.352 17.6538 20.4666 17.4374 19.5036 17.5778C18.5323 17.7199 17.7493 18.1989 17.1646 18.9868C16.5319 19.8375 16.3354 20.7923 16.5352 21.8296C16.6129 22.2294 16.7632 22.6043 16.9763 22.9512C17.0506 23.0735 17.0655 23.194 17.0159 23.3278C16.9763 23.4336 16.9449 23.5409 16.9102 23.6483C16.821 23.9225 16.7335 24.1967 16.641 24.4891Z" fill="black"/>
<path d="M18.3756 21.5158C18.1493 21.5174 17.9593 21.3275 17.9609 21.1012C17.9626 20.8782 18.1476 20.6915 18.3706 20.6899C18.5969 20.6882 18.7869 20.8782 18.7852 21.1045C18.7852 21.3275 18.6002 21.5141 18.3756 21.5158Z" fill="black"/>
<path d="M20.4388 21.1028C20.4388 21.3291 20.2488 21.5174 20.0225 21.5158C19.7995 21.5141 19.6145 21.3275 19.6145 21.1045C19.6145 20.8782 19.8045 20.6899 20.0308 20.6915C20.2538 20.6932 20.4371 20.8782 20.4388 21.1028Z" fill="black"/>
<path d="M22.0906 21.0995C22.0922 21.3258 21.9039 21.5158 21.676 21.5141C21.453 21.5125 21.2663 21.3275 21.2647 21.1045C21.263 20.8782 21.4513 20.6882 21.6793 20.6899C21.9023 20.6915 22.0889 20.8765 22.0906 21.0995Z" fill="black"/>
<path fill-rule="evenodd" clip-rule="evenodd" d="M39.6312 16.6535L40.6635 16.996C41.0524 17.118 43.6834 18.0034 43.8241 18.004C43.9179 17.8392 44.0394 17.5179 44.1958 17.2489C44.333 17.0124 44.482 16.7912 44.6425 16.5611C44.8137 16.3158 45.2116 15.8528 45.4394 15.6507C45.4895 15.6062 45.6978 15.4218 45.7335 15.3661C45.7014 15.2743 45.1892 14.5973 45.0962 14.4706C44.8856 14.1841 44.6656 13.8789 44.4549 13.5813L43.158 11.801C43.0012 11.8467 42.1728 12.6668 42.0595 12.7804C41.4234 13.4169 40.7364 14.3833 40.2834 15.1969C40.1731 15.3951 39.6259 16.4684 39.6311 16.6535L39.6312 16.6535Z" fill="#00AFEF"/>
<path d="M45.6404 21.3501H45.2788L45.0257 21.0076H44.4586V21.3501H44.1675V20.7164H45.1609C45.2122 20.7164 45.2578 20.6992 45.2941 20.6631C45.3303 20.6251 45.3493 20.5813 45.3493 20.5299C45.3493 20.4785 45.3303 20.4348 45.2941 20.3967C45.2579 20.3605 45.2122 20.3433 45.1609 20.3433H44.1675V20.0503L45.1609 20.0521C45.2274 20.0521 45.2884 20.0635 45.3473 20.0902C45.4634 20.1416 45.5491 20.2273 45.6023 20.3453C45.627 20.4062 45.6404 20.4689 45.6404 20.5299C45.6404 20.5908 45.627 20.6535 45.6023 20.7145C45.5509 20.8306 45.469 20.9143 45.3549 20.9656L45.6404 21.35V21.3501ZM50.8301 21.3501H49.3572V21.059H50.8301V21.3501ZM50.8301 20.3473H49.3572V20.0562H50.8301V20.3473ZM50.7102 20.8478H49.4751V20.5567H50.7102V20.8478ZM51.9768 21.3502H51.3488C51.2918 21.3502 51.2385 21.3407 51.189 21.3198C51.0863 21.2779 51.0101 21.2095 50.9607 21.1086C50.9378 21.061 50.9263 21.0077 50.9263 20.9525H51.2175C51.2175 20.9753 51.2251 20.9945 51.2384 21.0097C51.2518 21.0268 51.2688 21.0382 51.2898 21.0458C51.3089 21.0534 51.3298 21.059 51.3488 21.059H51.9767C51.9957 21.059 52.0167 21.0534 52.0357 21.0458C52.0567 21.0382 52.0739 21.0268 52.0871 21.0097C52.1005 20.9945 52.108 20.9753 52.108 20.9525C52.108 20.9297 52.1005 20.9106 52.0871 20.8954C52.0738 20.8802 52.0567 20.8669 52.0357 20.8592C52.0166 20.8497 51.9957 20.8459 51.9767 20.8459H51.3488C51.2917 20.8459 51.2384 20.8363 51.1889 20.8174C51.0862 20.7755 51.0101 20.705 50.9606 20.6061C50.9378 20.5586 50.9263 20.5053 50.9263 20.4501C50.9263 20.393 50.9377 20.3416 50.9606 20.2922C51.01 20.1933 51.0862 20.1228 51.1889 20.0828C51.2384 20.0619 51.2917 20.0524 51.3488 20.0524H51.9767C52.0338 20.0524 52.0871 20.0619 52.1366 20.0828C52.2393 20.1228 52.3155 20.1933 52.3649 20.2922C52.3878 20.3416 52.3993 20.3931 52.3993 20.4501H52.1081C52.1081 20.4273 52.1005 20.4083 52.0872 20.393C52.0739 20.3759 52.0568 20.3644 52.0358 20.3568C52.0167 20.3474 51.9958 20.3436 51.9768 20.3436H51.3488C51.3299 20.3436 51.3089 20.3474 51.2899 20.3568C51.2689 20.3644 51.2519 20.3759 51.2385 20.393C51.2252 20.4082 51.2176 20.4272 51.2176 20.4501C51.2176 20.4729 51.2252 20.492 51.2385 20.5072C51.2519 20.5224 51.2689 20.5338 51.2899 20.5434C51.309 20.551 51.3299 20.5548 51.3488 20.5548H51.9768C52.0339 20.5548 52.0872 20.5662 52.1367 20.5872C52.2394 20.6271 52.3155 20.6975 52.365 20.7965C52.3878 20.846 52.3993 20.8974 52.3993 20.9525C52.3993 21.0077 52.3879 21.061 52.365 21.1086C52.3156 21.2095 52.2394 21.278 52.1367 21.3198C52.0872 21.3407 52.0338 21.3502 51.9768 21.3502ZM53.2376 21.3502H52.9464V20.3416H52.4745V20.0505H53.7096V20.3416H53.2377V21.3502H53.2376ZM54.5914 21.3502H54.3003V20.3416H53.8283V20.0505H55.0634V20.3416H54.5915V21.3502H54.5914ZM56.4324 21.3502H56.0993L55.5779 20.4197L55.0565 21.3502H54.7234L55.4503 20.0505H55.7054L56.4323 21.3502H56.4324ZM49.197 21.3502H48.9077V20.5015L48.4624 21.137H48.2246L47.7793 20.5015V21.3502H47.4881V20.0505H47.8174L48.3426 20.8002L48.8679 20.0505H49.1971V21.3502H49.197ZM47.4184 21.3502H47.0854L46.5639 20.4197L46.0425 21.3502H45.7095L46.4364 20.0505H46.6914L47.4183 21.3502H47.4184Z" fill="#00AFEF"/>
<path fill-rule="evenodd" clip-rule="evenodd" d="M39.817 17.8657L39.2732 17.706C39.1777 17.9014 39.0264 18.8306 38.985 19.0907C38.748 20.5767 38.9048 22.3008 39.2681 23.6938C39.4042 23.6837 42.4784 22.6753 42.9254 22.5226C43.0852 22.4681 43.3044 22.4124 43.4594 22.3486C43.4772 22.2822 43.3676 21.6993 43.3479 21.5618C43.2766 21.0647 43.2675 20.3568 43.3431 19.8646L43.4751 19.0732L43.3681 19.019C43.3191 19.0027 43.2857 18.9941 43.2351 18.9772L39.817 17.8658L39.817 17.8657Z" fill="#00AFEF"/>
<path fill-rule="evenodd" clip-rule="evenodd" d="M39.6256 24.7556C39.6581 24.9961 40.1294 25.9266 40.2778 26.1914C40.6405 26.8372 41.0661 27.4843 41.5502 28.0497C41.8784 28.4329 42.2222 28.7853 42.5702 29.1169C42.7285 29.2678 42.9403 29.457 43.1356 29.5946C43.2133 29.5527 43.4015 29.2653 43.468 29.173C43.9483 28.5074 44.6045 27.5716 45.0827 26.9485C45.199 26.797 45.296 26.6534 45.4103 26.4994C45.4732 26.4148 45.5089 26.3628 45.5708 26.2803C45.6109 26.2268 45.6971 26.1148 45.7333 26.0431C45.6945 25.9551 45.5266 25.8339 45.4545 25.7665C44.9923 25.3349 44.5182 24.713 44.2013 24.1572C44.0489 23.8896 43.904 23.531 43.8238 23.3908C43.7181 23.3904 41.9752 23.9793 41.7274 24.0576C41.472 24.1384 39.7052 24.6914 39.6255 24.7556H39.6256Z" fill="#00AFEF"/>
<path fill-rule="evenodd" clip-rule="evenodd" d="M44.0487 30.2606C45.3686 31.153 46.5342 31.5458 48.0647 31.9048C48.5015 32.0073 49.2852 32.1133 49.7562 32.1079C49.7562 31.6138 49.7903 27.8167 49.736 27.68C49.1205 27.6305 48.5668 27.5156 48.0351 27.3331C47.7753 27.2437 47.5409 27.1465 47.3124 27.041C47.0709 26.9298 46.8676 26.793 46.6429 26.6842C46.5432 26.7587 46.3934 27.0071 46.3157 27.1134C46.1909 27.2846 46.0962 27.4149 45.9883 27.5631C45.7875 27.839 45.5468 28.1638 45.3352 28.4638C45.1865 28.6746 44.0714 30.1649 44.0486 30.2605L44.0487 30.2606Z" fill="#00AFEF"/>
<path fill-rule="evenodd" clip-rule="evenodd" d="M50.8533 32.1104C51.1666 32.1326 52.181 31.9821 52.5109 31.9106C53.0464 31.7946 53.5139 31.6761 53.9994 31.5123C54.5748 31.3182 56.0818 30.6544 56.5453 30.2606C56.5282 30.1685 56.0124 29.4961 55.9129 29.3579L53.9681 26.6869L53.2648 27.0515C53.0373 27.1562 52.761 27.2683 52.507 27.3535C52.0439 27.509 51.6763 27.5809 51.1961 27.6464C50.8004 27.7002 50.8428 27.6333 50.8449 27.8394C50.8484 28.1944 50.8222 31.9072 50.8532 32.1105L50.8533 32.1104Z" fill="#00AFEF"/>
<path fill-rule="evenodd" clip-rule="evenodd" d="M54.8618 26.0208C54.8891 26.1179 55.3699 26.7473 55.49 26.9176C55.7038 27.2206 55.911 27.492 56.1449 27.816C56.3076 28.0413 57.3703 29.534 57.4528 29.5955C57.6461 29.4992 58.3904 28.7755 58.5513 28.6064C59.211 27.9128 59.871 27.0271 60.3235 26.1844C60.4184 26.0077 60.9788 24.9177 60.9723 24.7422L56.7885 23.3807C56.652 23.559 56.2784 24.7202 55.1576 25.7454C55.0642 25.8307 54.9822 25.9256 54.8618 26.0208V26.0208Z" fill="#00AFEF"/>
<path fill-rule="evenodd" clip-rule="evenodd" d="M57.1221 19.0557C57.147 19.4245 57.3053 19.7996 57.3053 20.5826C57.3053 21.0469 57.2831 21.1759 57.2473 21.627C57.2345 21.7882 57.115 22.2442 57.1328 22.3446C57.4641 22.4708 57.8158 22.5656 58.1707 22.6849L61.3245 23.6999C61.6465 22.3747 61.727 21.818 61.727 20.4494C61.727 19.5607 61.5425 18.4837 61.3284 17.7041C61.0682 17.7336 57.7012 18.8999 57.1221 19.0556V19.0557Z" fill="#00AFEF"/>
<path fill-rule="evenodd" clip-rule="evenodd" d="M54.8594 15.3662C54.9337 15.4552 55.2615 15.7303 55.4317 15.9227C55.8371 16.3807 56.0991 16.7159 56.3979 17.2443L56.7872 18.0086L60.9751 16.6573C60.9614 16.4489 60.4415 15.426 60.3275 15.2193C60.0873 14.7839 59.8022 14.338 59.5084 13.9326C59.1351 13.4174 58.4987 12.6955 58.0269 12.2832C57.8641 12.1408 57.6336 11.9088 57.453 11.7983C57.3766 11.8595 56.2361 13.4598 56.1516 13.576C55.9644 13.8331 55.7268 14.145 55.5067 14.4615L54.8594 15.3661V15.3662Z" fill="#00AFEF"/>
<path fill-rule="evenodd" clip-rule="evenodd" d="M50.8462 13.7085C51.1547 13.7605 51.4522 13.7754 51.7404 13.8412C53.0818 14.1475 53.8776 14.6878 53.9681 14.707L56.2266 11.6104C56.2965 11.5122 56.5164 11.2404 56.5488 11.1488C56.4972 11.0893 56.3525 11.0092 56.2699 10.9572C56.1688 10.8936 56.0725 10.8369 55.9773 10.7824C55.774 10.6659 55.5591 10.5544 55.3536 10.4498C54.4901 10.0104 53.5137 9.6939 52.5457 9.49285C52.1645 9.4137 51.225 9.26052 50.8506 9.29234L50.8463 13.7086L50.8462 13.7085Z" fill="#00AFEF"/>
<path fill-rule="evenodd" clip-rule="evenodd" d="M44.0469 11.1487L45.9714 13.8171C46.073 13.9525 46.5611 14.6528 46.643 14.7092L47.3204 14.354C47.5475 14.2459 47.8038 14.1464 48.0444 14.061C48.7329 13.8166 49.6284 13.7474 49.7485 13.7014L49.7563 9.30015C48.8733 9.25605 47.405 9.6117 46.5674 9.89631C46.0467 10.0732 44.3124 10.8326 44.047 11.1487H44.0469Z" fill="#00AFEF"/>
</svg>
